<?xml version="1.0" encoding="UTF-8"?>
<svg id="Layer_1" data-name="Layer 1" xmlns="http://www.w3.org/2000/svg" xmlns:xlink="http://www.w3.org/1999/xlink" viewBox="0 0 32 32">
  <defs>
    <style>
      .cls-1 {
        fill: #000;
      }

      .cls-1, .cls-2, .cls-3 {
        stroke-width: 0px;
      }

      .cls-2 {
        fill: #ffec00;
      }

      .cls-3 {
        fill: none;
      }

      .cls-4 {
        clip-path: url(#clippath);
      }
    </style>
    <clipPath id="clippath">
      <path class="cls-3" d="M0,16h0C0,7.16,7.16,0,16,0s16,7.16,16,16-7.16,16-16,16S0,24.84,0,16Z"/>
    </clipPath>
  </defs>
  <path class="cls-2" d="M0,16h0C0,7.16,7.16,0,16,0h0c8.84,0,16,7.16,16,16h0c0,8.84-7.16,16-16,16h0C7.16,32,0,24.84,0,16Z"/>
  <path class="cls-1" d="M23.5,25.5s-.1,0-.2-.1c-.2-.2-.4-.4-.6-.6,0-.1-.2-.1-.3-.2-.3-.2-.6-.5-.9-.7-.1,0-.3-.2-.4-.3-.2-.1-.3-.3-.5-.5h0c-.2-.2-.3-.5-.3-.9v-.3c0-.1,0-.2.1-.4.1-.3.3-.5.5-.7s.4-.3.6-.4c.2-.1.4-.2.6-.2s.4-.1.6-.2c.1,0,.2-.1.4-.2h.1c.1.2.3.3.4.5s0,0,0,.1c0,.3.2.5.4.8,0,.1.1.3.2.4,0,.3.1.6.2.8,0,.5.1,1,0,1.4v.5h0c0,.2-.1.4-.1.6,0,0,0,.2-.1.2,0,0,0,.2-.1.2h-.2q-.2-.1-.3,0h0l-.1.2ZM21.9,22.8h0Z"/>
  <path class="cls-1" d="M15,24.3c0-.2,0-.5.1-.8v-.1l.1-.1c0-.2.2-.4.3-.6v-.3h0l.1.1h.6c.1,0,.2.1.4.1s.3.2.4.2c.3.1.5.4.7.6v.1s0,.1.1.2c.1.1.1.3,0,.5,0,.1,0,.2-.1.4,0,.2,0,.4-.1.6,0,.3,0,.6-.1.9,0,.2-.2.2-.4.3h-1.9c-.2-.3-.3-.6-.4-.9-.1-.3-.1-.6-.1-.9h0l.3-.3Z"/>
  <path class="cls-1" d="M20.5,30.3c-.2,0-.3,0-.4-.2,0,0-.1-.1-.2-.2-.1,0-.1-.2-.2-.3v-.4c0-.1,0-.2-.2-.3s-.3-.3-.4-.5-.2-.4-.2-.6c0-.1,0-.3-.1-.4v-.3h0c.1,0,.2-.1.3-.1h.3c.2,0,.5.1.7,0h1.4c.3,0,.5.1.8.2h.3c.3,0,.4.3.4.5v.3c0,.1-.2.3-.3.4-.4.3-.8.5-1.1.9,0,0-.1.1-.1.2s-.2.3-.2.5c0,.1-.1.2-.3.2h-.1l-.4.1Z"/>
  <path class="cls-1" d="M23.3,16.5v.4c0,.2,0,.5-.2.7h0c-.2.3-.5.6-.7.9,0,.1-.1.2-.2.3,0,.1-.2.2-.3.3s-.2.3-.2.5-.1.2,0,.3c0,0-.1,0-.1.1h0c-.1,0-.2-.2-.4-.2h-.7s-.1-.1-.2-.2h0v-.9c0-.1,0-.2.1-.3.2-.3.4-.6.7-.9.3-.3.7-.5,1-.8,0,0,.2,0,.2-.1,0,0,.1-.1.1-.2s.1-.2.3-.2h.3c.1,0,.2,0,.3.1h0c.1,0,.1.1.1.3l-.1-.1Z"/>
  <path class="cls-1" d="M4.1,21.6h.4c.2.1.5.2.6.4.1.1.2.3.3.5v.3c0,.3-.1.5-.3.6-.2.2-.4.4-.7.5h-.5c-.5,0-.8-.2-1.1-.6v-.2c0-.2,0-.4-.2-.6v-.4c.2-.2.5-.4.8-.5h0s.2,0,.3-.1h.3l.1.1Z"/>
  <path class="cls-1" d="M19.1,17.6c0,.2.1.3.2.5,0,.2,0,.4-.1.5h0c-.1,0-.2.1-.3.2-.2,0-.4.1-.6,0-.3-.1-.5-.2-.6-.5-.1-.2-.3-.4-.4-.6-.1-.2-.1-.3-.2-.5v-.9c0-.1,0-.2.1-.3,0,0,.1-.1.2,0,0,0,.1,0,.1.1s.1.1.2.2c.1.1.2.3.2.5v.5h0c.1.1.2.3.4.4,0,0,.1.1.2,0h.3s.1-.1.2-.2c0,0,.1-.1.2-.2h0l-.1.3Z"/>
  <g class="cls-4">
    <path class="cls-1" d="M23.9,27.4h.4v-1.1c0-.3,0-.5.1-.7v-.9c0-.3,0-.6.1-.9v-1.5c0-.2,0-.5.1-.7,0-.3.1-.6.2-.9.1-.2.1-.5.3-.7.1-.2.2-.4.3-.6.1-.2.2-.5.3-.7,0-.2,0-.4-.1-.5h-.2l-.1.1c-.2.2-.4.4-.6.6,0,.1-.2.2-.2.3,0,0-.1.1-.2.1h-.3c-.1,0-.2-.1-.2-.2v-.3c.1-.2.2-.4.3-.5s.2-.3.2-.5c0,0,0-.1.1-.1h.2s.1,0,.1-.1,0-.1-.1-.2c-.2-.1-.5-.3-.6-.5-.1-.1-.2-.3-.2-.5s0-.1-.2-.2c0,0-.2,0-.2-.1h-.1c-.1,0-.2-.1-.3-.2,0-.1-.2-.2-.3-.3-.2-.2-.4-.3-.6-.5-.1,0-.2-.2-.3-.2h-.2l-.5.5c-.1.1-.2.2-.3.4h-.2c0-.1-.1-.3-.1-.4v-.3c.1-.2.2-.5.4-.6v-.1c0-.1,0-.2-.1-.2s-.2,0-.3-.1h0c-.1-.1-.3-.1-.4,0-.1,0-.2,0-.3.1,0,0-.1,0-.1.1h-.3c-.2,0-.4.2-.5.3-.1,0-.2.1-.3.2-.1.1-.3.2-.5.2s-.3,0-.4.2h-.2c-.2,0-.4.1-.5.2-.1,0-.2,0-.4.1-.2,0-.4.2-.6.3-.1,0-.2.1-.3.2-.2.1-.4.2-.5.4,0,0-.2.1-.2.2l-.6.6c-.1,0-.2.2-.4.3l-.2.2-.2.2s-.1,0-.1.2l-.2.2-.1.1c-.1.1-.2.2-.4.3,0,0-.1,0-.1.2h.8c.1,0,.2,0,.3.2l.4.4.4.4h0c0,.1,0,.2.2.3h0c0,.1,0,.2.1.3v.3h0s-.2.2-.3.2c0,0-.2,0-.2.1-.2.1-.4.1-.5.2h-.2c-.2,0-.4.1-.5.1-.3.1-.6.1-.8.2-.1,0-.2.1-.4.2h-.3c-.3,0-.7.1-1,.1h-.6c-.2,0-.3-.1-.5-.2-.2,0-.5-.2-.7-.3-.1,0-.2,0-.3-.1,0,0-.1-.1-.1-.2s0-.2-.1-.3q0-.1-.2-.1h-.9c-.2,0-.3,0-.5.1h-1.2c-.3,0-.5.1-.8,0h-.5c-.2,0-.4.1-.6.1s-.3,0-.5.1c-.2,0-.2.2-.3.3-.2.1-.1.3-.1.5v1.3h0q0,.1-.1.1c-.1,0,0,0,0,.1v.1c.1.2.2.4.3.6,0,.1.2.3.3.4,0,.1.2.2.3.2.2,0,.3.1.5.3.1.1.2.1.4.2h3.6q.2,0,.2-.2v-.2c0-.1,0-.2.1-.3.1,0,.2-.2.4-.2.1,0,.2-.2.4-.2v-.3c.3-.2.6-.4.8-.5s.5-.2.7-.4c.2-.1.3,0,.4,0,.2,0,.4.2.5.2v.1c0,.3.2.5.4.8.1.2.2.5.2.7q0,.1.1.1h.4s.1,0,.2.1c0,0,.2.2.3.2h0c0,.1.1.2.1.3h0c.1,0,.3.1.4,0s.3,0,.4,0h0c.2,0,.3,0,.5.1.1,0,.2,0,.3.1.2.1.5.3.7.5.1.1.2.3.4.4,0,0,0,.1.1.1.1.2.3.4.5.6,0,0,.1.2.2.3.1.2.2.5.2.7s.1.4.2.6c0,.1,0,.2.1.3,0,0,0,.1.1,0h.1c0,.1.2.2.3.2,0,0,.2,0,.3.1.3.1.6.3.9.5s.7.4.9.7c0,.1.1.2.2.4,0,.1,0,.2.2.3h0s-.1.1-.2.2h0v.9h-2.6q-.2,0-.2-.2v-.2c0-.2-.2-.4-.2-.6,0-.1-.1-.3-.2-.4-.1-.3-.2-.6-.3-.9,0-.3-.1-.6-.2-.9v-.3c0-.2,0-.3-.1-.5,0-.2,0-.3-.2-.4-.2-.2-.3-.4-.5-.5s-.4-.3-.6-.5c-.1-.1-.3-.2-.5-.3h-.2c-.1,0-.2,0-.3-.1s-.2,0-.3-.1h-.4c-.2.1-.4.3-.6.3h-.5c-.2,0-.4.1-.6.2l-.6.3h0c-.2,0-.3.2-.5.3h0c-.2.1-.4.4-.6.5,0,0-.2.1-.2.2s-.2.1-.3.2c-.1,0-.2.1-.4.2-.3,0-.5.1-.8.2-.3,0-.6.2-1,.3-.2,0-.4.1-.6.1h-.3c-.1,0-.3,0-.4.1-.3,0-.5.2-.7.3s-.4.3-.5.4h0c0,.2-.3.2-.4.2h-.1v-.3c0-.1,0-.2.1-.3v-.3c.2-.3.4-.6.6-.9,0-.1.2-.3.3-.4v-.2c0-.1,0-.2-.1-.1h-1c-.2-.1-.4-.3-.5-.5-.1-.3-.2-.6-.4-.9,0-.2-.2-.4-.3-.6,0,0,0-.1-.2-.2-.1,0-.2-.2-.3-.3-.2-.3-.4-.6-.6-1-.1-.3-.1-.6-.1-1v-.6c0-.1,0-.2-.1-.2h-.2c-.2-.1-.2-.3-.2-.4v-1.1c0-.2.2-.4.3-.5.1,0,.2-.2.3-.2s.3-.2.5,0h0c.2.1.4.1.5.2.2,0,.3.1.4.2l.2.1h.1c.2,0,.4-.1.7-.2h1.1c.3.1.6,0,.9,0h1.4c.2,0,.5,0,.7-.1.2,0,.4,0,.7-.1h.7c.2,0,.4,0,.6-.1h0c.3,0,.6-.1.9-.2,0,0,.1,0,.2-.1,0,0,.1-.1.2-.1s0,0,.1-.1c.2-.1.4-.3.6-.4.1-.1.2-.2.4-.3.2-.2.4-.4.6-.5l.2-.2c.3-.2.6-.5.9-.8.1-.2.3-.3.5-.4.2-.2.4-.4.6-.5.2-.2.5-.4.8-.6.2-.1.4-.2.6-.3h0c.2,0,.4-.1.7-.2h.2c.3,0,.6-.1.9-.4h.1c.1,0,.2,0,.3-.1.2-.1.5-.3.7-.4,0,0,.1,0,.2-.1,0,0,.1-.1,0-.2v-.5c.1-.3.3-.5.4-.8,0-.1,0-.3.1-.4,0-.2.1-.4.2-.5,0-.1.1-.2.2-.3,0-.2.2-.4.4-.5h0c.1-.2.3-.2.4-.4l.1-.1c.2-.2.5-.3.7-.5.3-.2.7-.4,1.1-.5.2,0,.4-.1.6-.2.1,0,.2,0,.3-.1.3,0,.5-.2.8-.3,0,0,.1,0,.1-.1h.1c.1,0,.3,0,.4.1.1,0,.1.2.2.3v.1c-.1,0-.2.1-.3.2-.2.1-.3.3-.4.4h0c-.2.3-.3.6-.4.9,0,.2,0,.5-.2.7,0,.1,0,.2-.2.3v.1c0,.2-.1.4-.3.5h0c0,.2-.3.3-.5.5h0c.1,0,.2.2.3.2,0,0,.1,0,.1.1,0,0,0,.1.1.1.1.1.1.3,0,.4v.2c0,.1,0,.2-.2.2-.1,0-.3,0-.4.1-.2,0-.3.2-.4.3h.4c.1,0,.2-.1.3-.1h0c.2-.2.5-.2.7-.4.2,0,.3-.2.5-.2.2-.1.5-.2.7-.3,0,0,.2,0,.3-.1.2,0,.4-.1.6-.2.1,0,.2,0,.4-.1.2,0,.4-.2.6-.2h1.8s.1.1.3.1c0,0,.1,0,.2.1s.2.2.3.4v.7c.3.2.6.3.8.4.3.2.6.4.9.7.1.2.3.3.4.5.1.2.2.4.3.6v.7c0,.1,0,.2-.1.3-.1.2-.1.4-.1.5v.3h0v.2h-1c-.2,0-.4,0-.6-.1-.2,0-.4-.1-.6-.2-.2-.1-.3-.2-.5-.4h-.3s-.2,0-.3.1-.2,0-.3,0h-1.2c-.2,0-.4.2-.5.3v.2c0,.1,0,.2.1.3,0,.1.1.3.1.5v.3c0,.2-.1.4-.2.5,0,.1-.1.2-.1.3,0,0,0,.1-.1.1h0c0,.1,0,.2-.1.3,0,.2-.2.3-.3.4v.2c-.1.4-.3.8-.4,1.2v6.5c0,.3,0,.5-.1.8,0,.2-.1.4-.2.6-.1.3-.2.6-.3.9v.8c0,.1-.2.3-.2.5s0,.2-.2.2h-1v-.7q-.4,0-.4-.2c0-.2,0-.3.2-.5,0-.1.1-.3.2-.4,0-.1.1-.2.1-.3,0-.3.1-.6.2-.9,0-.3.1-.7.3-1h0c.2-.2.2-.5.3-.8,0-.1.1-.2.1-.3s.1-.3,0-.4h.1l-1.5-.1ZM31.4,16.1v-.3c0-.2-.2-.4-.4-.5-.1,0-.2-.2-.4-.2-.2-.1-.4-.2-.6-.3-.1,0-.3-.1-.4-.2,0,0-.2-.1-.3,0h-1.1c-.1,0-.2,0-.2.2s0,.3.1.5c0,.3.2.5.6.6h0c0,.2.2.3.3.5,0,.2,0,.3.1.5v.1c.2.1.4.3.7.4.2,0,.4,0,.5.1.2,0,.3,0,.4-.2,0-.1.1-.3.3-.3.3-.1.4-.4.3-.6h0l.1-.3ZM27.2,15.1h0q.2,0,.2-.1v-.3h-.5c-.2,0-.3.1-.5.2s-.1,0-.2,0c-.4.1-.7.4-1,.6l-.2.2c0,.1-.1.3-.3.4,0,0-.1.1-.2.2v.2c.2.1.4.3.6.4,0,0,.1,0,.2.1,0,0,.1.1.2.2h.3c.2-.1.4-.2.5-.3h.2s.1,0,.2-.1c0-.1.1-.2.1-.4v-.3c0-.3.3-.5.3-.8h0l.1-.2ZM10.8,25.9h-.6c-.2,0-.3.2-.5.3l-.6.3h-.3c-.2,0-.3.1-.5.1-.1,0-.3,0-.4.1,0,0-.2.1-.3.1,0,0-.1,0-.2.1,0,.1-.2.2-.3.3-.2,0-.3.1-.5.1-.3,0-.5.2-.7.4,0,.1-.2.2-.4.4-.2.2-.4.4-.6.6v.2h.2c.2,0,.3,0,.4-.1.3,0,.6-.1.9-.2.3,0,.6-.2.9-.3.3,0,.5-.3.7-.4.2-.2.4-.4.6-.5.2-.2.5-.4.6-.6h0c.2,0,.3-.2.4-.3.1,0,.3-.2.5-.2h0s.1-.1.1-.2c.1,0,.2-.1.4-.2h.2ZM4.6,26.8h.3c.2,0,.3-.1.2-.4h-1.2s-.2,0-.1.1v.2q0,.1.2.1h.6ZM6.7,26.3h-1.1q-.1,0-.1.2c0,.1,0,.2.2.2h.3c.2,0,.4,0,.6-.2,0,0,.1,0,.2-.1h0l-.1-.1ZM21.7,13.1c-.2,0-.4.1-.6.2-.1,0-.2,0-.3.1v.2c0,.1.2.2.3.2h.2s.1-.2.2-.3c.1-.1.2-.2.2-.4h0ZM22.6,11.7h.1c.2-.2.4-.2.6-.4.2-.1.3-.4.5-.6v-.2h-.1c-.1.1-.2.3-.4.4,0,0-.1,0-.2.1l-.4.4v.1h0l-.1.2ZM10.8,26.8h0c.3-.1.6-.2,1-.4h.1c.2,0,.3-.1.5-.3h-.3c-.1,0-.2,0-.4.1-.1,0-.2.1-.4.1s0,0,0,0c0,0-.1,0-.2.2,0,.1-.2.2-.3.2h0v.1ZM24.2,9.3c0-.1,0-.2-.2-.1h-.2s-.1,0,0,.1c0,0,0,.2.1.2h.2c0-.1.1-.2.1-.3v.1ZM20.4,12.5v.2c0,.2,0,0,0,0,0,0,.1,0,.1-.1s0-.1-.1-.1h0ZM23.2,14.7s-.1,0-.1.1c0,0,0,.1.1.1,0,0,.1,0,.1-.1h0l-.1-.1ZM10.4,27h.1-.1ZM10.5,23.9h0ZM20.8,15.7h0Z"/>
  </g>
</svg>